<?xml version="1.0" encoding="UTF-8" standalone="no"?><!DOCTYPE svg PUBLIC "-//W3C//DTD SVG 1.1//EN" "http://www.w3.org/Graphics/SVG/1.1/DTD/svg11.dtd"><svg width="445px" height="512px" version="1.1" xmlns="http://www.w3.org/2000/svg" xmlns:xlink="http://www.w3.org/1999/xlink" xml:space="preserve" xmlns:serif="http://www.serif.com/" style="fill-rule:evenodd;clip-rule:evenodd;stroke-linejoin:round;stroke-miterlimit:2;"><rect id="Plan-de-travail1" serif:id="Plan de travail1" x="0" y="0" width="445" height="512" style="fill:none;"/><clipPath id="_clip1"><rect x="0" y="0" width="445" height="512"/></clipPath><g clip-path="url(#_clip1)"><path d="M223,0C297.117,42.143 371.148,84.885 444.703,128C445.264,213.258 445.264,298.742 444.703,384C371.148,427.115 297.117,469.857 223,512C148.883,469.857 74.852,427.115 1.297,384C0.736,298.742 0.736,213.258 1.297,128C74.852,84.885 148.883,42.143 223,0ZM235.687,256.106L351.877,372.296L352.723,371.45C353.406,370.767 354.517,370.767 355.2,371.45L357.678,373.928C358.362,374.612 358.362,375.722 357.678,376.406L351.522,382.562C350.838,383.246 349.728,383.246 349.044,382.562L346.566,380.085C345.883,379.401 345.883,378.291 346.566,377.607L347.412,376.761L231.222,260.571L235.687,256.106ZM273.257,204.394L100.89,376.761L101.735,377.607C102.419,378.291 102.419,379.401 101.735,380.085L99.258,382.562C98.937,382.883 98.523,383.053 98.103,383.073L98.019,383.075C97.57,383.075 97.122,382.904 96.78,382.562L90.623,376.406C89.94,375.722 89.94,374.612 90.623,373.928L93.101,371.45C93.443,371.109 93.892,370.938 94.34,370.938C94.789,370.938 95.237,371.109 95.579,371.45L96.425,372.296L268.787,199.934C262.424,193.466 289.966,155.081 296.383,148.664L329.111,116.369C335.533,109.947 345.961,109.947 352.383,116.369L356.691,120.677C363.114,127.099 363.114,137.527 356.691,143.95L323.713,177.611C317.985,183.339 287.334,205.153 276.214,205.249L276.07,205.249C274.929,205.239 274.001,204.991 273.339,204.462L273.257,204.394ZM212.614,241.964L175.05,204.399C168.582,210.761 130.197,183.22 123.78,176.803L91.485,144.075C85.062,137.653 85.062,127.225 91.485,120.803L95.793,116.494C102.215,110.072 112.643,110.072 119.066,116.494L152.727,149.473C159.103,155.848 185.408,193.103 179.51,199.929L217.08,237.499L212.614,241.964Z"/></g></svg>
