<svg
  stroke="currentColor"
  fill="currentColor"
  stroke-width="0"
  fill-rule="evenodd"
  viewBox="0 0 1024 1024"
  xmlns="http://www.w3.org/2000/svg">
  <path d="M872.426,875.644C671.725,1074.57 347.28,1073.13 148.356,872.426C-50.569,671.725 -49.127,347.28 151.574,148.356C352.275,-50.569 676.72,-49.127 875.644,151.574C1074.57,352.275 1073.13,676.72 872.426,875.644ZM516.401,488.245L607.953,396.693C607.736,395.665 607.592,394.578 607.523,393.432C607.106,386.525 609.886,376.266 615.217,364.533C630.773,330.297 667.364,280.715 678.421,269.657C678.436,269.642 678.451,269.628 678.465,269.613C678.465,269.613 756.669,192.442 756.625,192.486C775.622,173.489 806.469,173.489 825.466,192.486C825.466,192.486 835.761,202.781 835.761,202.781C854.758,221.778 854.758,252.625 835.828,271.554C835.828,271.554 757.025,351.99 756.957,352.058C745.957,363.058 697.702,398.19 663.944,413.256C654.357,417.534 645.786,420.201 639.295,420.73C636.635,420.947 634.215,420.821 632.045,420.402L540.302,512.146L826.751,798.595C831.345,797.255 836.512,798.395 840.133,802.015C840.133,802.015 846.053,807.936 846.053,807.936C851.338,813.221 851.338,821.802 846.053,827.087C846.053,827.087 831.343,841.798 831.343,841.798C826.058,847.083 817.476,847.083 812.191,841.798C812.191,841.798 806.271,835.877 806.271,835.877C802.65,832.257 801.51,827.09 802.851,822.496L516.401,536.046L229.951,822.496C231.292,827.09 230.152,832.257 226.532,835.877C226.532,835.877 220.611,841.798 220.611,841.798C215.326,847.083 206.744,847.083 201.46,841.798C201.46,841.798 186.749,827.087 186.749,827.087C181.464,821.802 181.464,813.221 186.749,807.936C186.749,807.936 192.67,802.015 192.67,802.015C196.29,798.395 201.457,797.255 206.051,798.595L492.501,512.146L400.757,420.402C398.587,420.821 396.167,420.947 393.507,420.73C387.017,420.201 378.445,417.534 368.858,413.256C335.101,398.19 286.845,363.058 275.845,352.058C275.777,351.99 196.974,271.554 196.974,271.554C178.044,252.625 178.044,221.778 197.041,202.781C197.041,202.781 207.336,192.486 207.336,192.486C226.333,173.489 257.18,173.489 276.178,192.486C276.133,192.442 354.337,269.613 354.337,269.613C354.352,269.628 354.366,269.642 354.381,269.657C365.439,280.715 402.029,330.297 417.585,364.533C422.916,376.266 425.696,386.525 425.279,393.432C425.21,394.578 425.066,395.665 424.849,396.693L516.401,488.245Z" />
</svg>
