<svg
  stroke="currentColor"
  fill="currentColor"
  stroke-width="0"
  fill-rule="evenodd"
  viewBox="0 0 1024 1024"
  xmlns="http://www.w3.org/2000/svg">
    <g transform="matrix(1.01683,0,0,1.01683,-8.61864,-23.7544)">
        <g transform="matrix(1.29784,0,0,1.29784,-152.495,-203.761)">
            <path d="M512,175C697.995,175 849,326.005 849,512C849,697.995 697.995,849 512,849C326.005,849 175,697.995 175,512C175,326.005 326.005,175 512,175ZM514.715,497.343L571.201,440.857C571.067,440.223 570.978,439.552 570.935,438.845C570.678,434.584 572.393,428.254 575.682,421.015C585.28,399.892 607.856,369.301 614.678,362.479C614.687,362.469 614.697,362.461 614.705,362.452C614.705,362.452 662.956,314.839 662.928,314.866C674.649,303.145 693.681,303.145 705.402,314.866L711.754,321.217C723.475,332.938 723.475,351.97 711.795,363.649C711.795,363.649 663.175,413.277 663.133,413.318C656.346,420.105 626.574,441.781 605.746,451.076C599.831,453.716 594.543,455.361 590.538,455.688C588.897,455.822 587.404,455.744 586.065,455.485L529.461,512.09L706.195,688.823C709.029,687.996 712.217,688.7 714.451,690.933L718.104,694.586C721.364,697.847 721.364,703.141 718.104,706.402L709.028,715.478C705.767,718.739 700.472,718.739 697.212,715.478L693.559,711.825C691.325,709.592 690.622,706.404 691.449,703.569L514.715,526.835L337.981,703.569C338.808,706.404 338.105,709.592 335.871,711.825L332.218,715.478C328.957,718.739 323.663,718.739 320.402,715.478L311.326,706.402C308.065,703.141 308.065,697.847 311.326,694.586L314.979,690.933C317.213,688.7 320.401,687.996 323.235,688.823L499.969,512.09L443.365,455.485C442.026,455.744 440.533,455.822 438.892,455.688C434.887,455.361 429.599,453.716 423.684,451.076C402.856,441.781 373.083,420.105 366.297,413.318C366.255,413.277 317.635,363.649 317.635,363.649C305.955,351.97 305.955,332.938 317.676,321.217L324.028,314.866C335.749,303.145 354.781,303.145 366.502,314.866C366.474,314.839 414.725,362.452 414.725,362.452C414.734,362.461 414.742,362.469 414.752,362.479C421.574,369.301 444.15,399.892 453.747,421.015C457.036,428.254 458.752,434.584 458.494,438.845C458.452,439.552 458.363,440.223 458.229,440.857L514.715,497.343Z"/>
        </g>
        <g transform="matrix(1.20381,1.20381,-1.21284,1.21284,755.437,-362.471)">
            <path d="M477,451L253,675L477,675L477,451Z"/>
        </g>
    </g>
</svg>
